<?xml version="1.0" encoding="utf-8"?>
<!-- Generator: Adobe Illustrator 23.0.1, SVG Export Plug-In . SVG Version: 6.00 Build 0)  -->
<svg version="1.2" baseProfile="tiny" id="Layer_1" xmlns="http://www.w3.org/2000/svg" xmlns:xlink="http://www.w3.org/1999/xlink"
	 x="0px" y="0px" viewBox="0 0 342.2 205.1" xml:space="preserve">
<path fill-rule="evenodd" fill="#D6261D" d="M342.2,45c-1.4-1.1-1.3,0.2-1.1-4c0-0.6,0.5-2.5,0.6-3.7c-5.7,1.4-5,6.5-11,8
	c-1.6,0.6-3.3,2.5-4.6,3.8c-22.5,22.6-47.5,36-78.2,47.3c-39.9,14.8-123.6,36.1-166,9.2c-15.5-9.8-19.2-28.2-7.1-45.4
	C83.4,48,97.3,37.4,110.4,29c6.7-4.4,13.9-8.7,21-12.8c2.9-1.6,19.6-10.1,20.8-11.5c1.2-3.2,1.6-2,4-4c-2.4-0.5-1.1-0.4-3.7-0.1
	c-5.4,0.6-2.8,1.1-3.7-0.6C113,9.7,69.1,38.9,52.5,62.1c-14.3,20.1-13,42.1,4.8,55.4c46.9,34.9,147.2,13.8,194.1-6.2
	c26.8-11.4,66.4-30.8,84-54.5C337.6,53.8,340.7,46.6,342.2,45z"/>
<path fill-rule="evenodd" fill="#1F1A17" d="M191.6,205c11.9,0,27.6,1.4,33.8-6.3c5.4-6.7,4.1-25.6-3.3-29.7
	c-8-4.5-25.5-3.2-36.1-3.7c-4.3-0.2-15.2,1-13.3-5.6c1.3-4.4,10.3-3.3,15.7-3.3c4.1,0,16.1-1.1,18.4,2.2l1.7,4h17.7
	c0.2-10.1-0.9-15.7-8.8-18.6c-6.9-2.5-16.3-2.1-24.2-2.1c-9.8,0-27.5-1.3-33.8,3.8c-5.5,4.5-7.6,18.3-3.6,26.8
	c4.1,8.7,17.5,7.2,27.7,7.6c21.9,0.9,28.3-1.3,25.6,8.8c-5.2,2.5-30.5,1.8-36.1,0.3l-1.5-5.8l-18.1-0.1c0.1,10.4,0.3,16.4,9,19.5
	C169.9,205.4,183.1,205,191.6,205L191.6,205z"/>
<path fill-rule="evenodd" fill="#D1261E" d="M287,57.8c0.6-4.4,4.3-6.7,4.6-12.2c-4.1,2.6-9.8,10.6-14.4,12c-2.5,0.9-9,6.8-12.8,9.4
	c-30.9,20.5-88.1,36.9-124.8,31c-32.8-5.3-42-23.7-19.2-46.2c17.3-17,50.5-30.2,54.9-34.6c-19.5-0.8-56,21.7-70.5,35.9
	c-27.5,26.8-11.7,50.7,23.5,56.4C175.6,117,249,97,284.5,62.2c0.7-0.7,1-1,1.5-1.7C287.1,58.8,286.8,59.5,287,57.8z"/>
<path fill-rule="evenodd" fill="#1F1A17" d="M81.4,204.1c1.8-2.4,3.8-7,5.4-10.2c49.4-0.3,37-2.8,45.4,10.2h20.9
	c-0.3-2.2-29.4-58.5-31.7-61.4H93c-1.2,1.4-32.1,57-32.4,61.4H81.4z M119.7,179.9H93.9c3.5-5,8.7-21.8,12.6-22.3
	c3.2-0.4,4.4,4.3,7.4,10.3C115.9,172,118.3,175.9,119.7,179.9 M19.5,203.5l-0.1-20.4l43.5,0.1l-0.4-14.7H19.4l0.1-10.8l44.9,0.1
	l0.2-14.2H0.7v59.9L19.5,203.5z M290.5,183.7l-1.7,4c-2.3,3.2-14.4,2.3-18.5,2.3c-5.3,0.1-14.4,1.3-15.7-3.2
	c-0.1-0.5-0.2-0.9-0.2-1.3l0,0c-0.4-3.4-1-17.8,0-24.4l0,0c0-0.1,0-0.3,0-0.4c0-0.2,0.1-0.4,0.1-0.6c0-0.1,0-0.2,0.1-0.3
	c1.3-4.4,10.4-3.3,15.7-3.3c4.1,0,16.2-1,18.5,2.2l1.7,4h17.8c0.2-10.1-0.9-15.7-8.8-18.6c-6.9-2.5-16.3-2.1-24.3-2.1
	c-9.8,0-27.6-1.3-33.9,3.8c-3.4,2.7-5.4,8.9-5.6,15.3h0.1c-0.2,2.6-0.9,15.9,0,25c0.3,6.3,2.5,12.3,5.8,15c6.3,5,24.1,3.6,33.9,3.5
	c8-0.1,17.4,0.3,24.3-2.3c7.9-3,9-8.5,8.6-18.6L290.5,183.7z"/>
<path fill-rule="evenodd" fill="#CC2B23" d="M254.9,47.8c-5.1,4.5-9.6,9.7-15.5,14.4c-16.1,12.6-49.1,22.2-71.1,22.1
	c-8.7,0-18.8-1.6-24.4-6c-8.1-6.3-5.3-14.9-0.1-20.7c5.1-5.6,10.1-8.9,17.3-13.3c3.9-2.4,18.3-9.6,20-11.3
	c-21.4,1.6-67.4,30.1-49.1,49.3c6.3,6.6,15.3,8.3,26.2,9.4c21.6,2.3,42.3-3.8,59.6-10.8C230.9,75.6,255.8,63.3,254.9,47.8z"/>
<path fill-rule="evenodd" fill="#C3332B" d="M228,52.8c-3.3,2-5.9,5.7-9.6,8.5c-9.6,7.3-28.1,12.5-40.5,12.5
	c-10.1,0-23.2-4.1-15-14.8c2.2-2.8,6.5-5.9,9.9-7.8c2.4-1.4,10.2-5.3,11.8-7.1c-9.5,0.7-21.2,8.3-26.6,14
	c-14.6,15.3,10,29.3,48,14.3c4.5-1.8,9.8-4.7,13.2-7C223.6,62.5,227.8,59.8,228,52.8L228,52.8z"/>
</svg>
