<?xml version="1.0" encoding="UTF-8"?><svg id="b" xmlns="http://www.w3.org/2000/svg" viewBox="0 0 335.67 55.59"><g id="c"><path d="M6.12,35.29c.36,2.12,1.76,3.37,4.19,3.75,2.06.37,4.31.54,6.74.52,2.32.02,4.28-.11,5.86-.39,1.72-.28,2.74-1.47,3.07-3.59h3.49c-.12,3.97-2.19,6.19-6.19,6.66-2.05.26-4.17.39-6.38.39-3.68.02-6.41-.17-8.2-.57-3.12-.71-5-2.49-5.62-5.33-.43-1.79-.65-3.71-.65-5.78,0-2.33.21-4.21.62-5.65.57-1.98,1.74-3.39,3.51-4.24.95-.47,1.89-.76,2.81-.88,1.87-.26,3.91-.39,6.12-.39,4.94.04,8.15.4,9.6,1.09,2.81,1.35,4.27,4.06,4.37,8.12v3.12H5.91c-.02,1.34.05,2.39.21,3.17ZM25.97,29.04c-.12-1.73-.36-2.92-.73-3.57-.57-1.06-1.52-1.75-2.85-2.08-1.33-.33-3.78-.51-7.35-.55-2,.02-3.82.21-5.47.57-2.27.47-3.5,2.34-3.67,5.62h20.06Z" fill="#fff"/><path d="M62.51,42.27h-3.49v-2.68l-.75.65c-.73.61-1.53,1.08-2.39,1.43-1.18.52-2.39.81-3.62.86-1.09.09-2.52.12-4.29.1-1.87,0-3.35-.03-4.42-.08-3.35-.14-5.8-1.05-7.36-2.73-1.34-1.46-2.01-3.97-2.03-7.55.02-3.78.28-6.38.78-7.78.92-2.57,2.93-4.04,6.04-4.42,1.6-.19,3.78-.29,6.56-.29l5.86.1c2.13.26,3.72.89,4.76,1.9l.88.96v-11.87h3.49v31.39ZM37.63,32.04c-.02,1.79.1,3.14.36,4.06.42,1.42,1.29,2.39,2.63,2.89,1.06.38,3.76.57,8.12.57,1.7.02,3.15-.02,4.36-.1s2.23-.36,3.08-.83c1.91-1.06,2.88-3.34,2.92-6.84-.04-3.4-.41-5.67-1.12-6.82-.75-1.08-2.21-1.72-4.4-1.93-1.39-.12-3.04-.18-4.94-.18l-5.02.08c-2.91.12-4.69,1.04-5.33,2.76-.47,1.23-.69,3.35-.65,6.35Z" fill="#fff"/><path d="M71.93,43.96c.07,1.74.54,2.96,1.42,3.68s2.12,1.14,3.73,1.26c1.11.1,2.44.15,3.98.13,3,.02,5.57-.17,7.7-.57,2.36-.4,3.63-1.67,3.83-3.83l.05-1.87v-3.17c-1.82,1.68-3.7,2.61-5.62,2.79-1.93.17-3.96.26-6.12.26-2.79.02-5.08-.14-6.84-.47-1.49-.24-2.75-.91-3.79-2.02-1.03-1.1-1.7-2.35-1.99-3.73-.36-1.53-.54-3.15-.52-4.87-.02-2.25.18-4.27.6-6.04.24-1.18.75-2.16,1.54-2.94,1.21-1.27,2.84-2.06,4.87-2.39,1.51-.24,3.36-.37,5.54-.39,2.74.02,5.1.13,7.08.34,1.21.14,2.22.45,3.02.94.62.38,1.37,1.01,2.24,1.9v-2.81h3.49v17.18l-.03,4.79c-.02,2.36-.27,4.14-.75,5.33-.62,1.6-1.92,2.77-3.89,3.53s-5.52,1.13-10.66,1.13c-4.16,0-7-.35-8.51-1.04-1.44-.66-2.46-1.62-3.07-2.89-.42-.92-.68-2.33-.78-4.22h3.49ZM71.26,31.36c-.02,1.53.09,2.85.31,3.96.4,2.27,1.73,3.59,4.01,3.96,1.2.17,3.2.27,6.01.29,6.11.02,9.59-1.01,10.46-3.1.42-.97.62-2.57.62-4.79-.02-3.02-.28-5.04-.78-6.06-.76-1.42-2.48-2.26-5.15-2.52-1.61-.16-3.6-.23-5.96-.23-1.67,0-3.19.07-4.58.21-2.29.24-3.73,1.2-4.32,2.86-.4,1.11-.61,2.92-.62,5.44Z" fill="#fff"/><path d="M104.85,35.29c.36,2.12,1.76,3.37,4.19,3.75,2.06.37,4.31.54,6.74.52,2.32.02,4.28-.11,5.86-.39,1.72-.28,2.74-1.47,3.07-3.59h3.49c-.12,3.97-2.19,6.19-6.19,6.66-2.05.26-4.17.39-6.38.39-3.68.02-6.41-.17-8.2-.57-3.12-.71-5-2.49-5.62-5.33-.43-1.79-.65-3.71-.65-5.78,0-2.33.21-4.21.62-5.65.57-1.98,1.74-3.39,3.51-4.24.95-.47,1.89-.76,2.81-.88,1.87-.26,3.91-.39,6.12-.39,4.94.04,8.15.4,9.6,1.09,2.81,1.35,4.27,4.06,4.37,8.12v3.12h-23.55c-.02,1.34.05,2.39.21,3.17ZM124.71,29.04c-.12-1.73-.36-2.92-.73-3.57-.57-1.06-1.52-1.75-2.85-2.08-1.33-.33-3.78-.51-7.35-.55-2,.02-3.82.21-5.47.57-2.27.47-3.5,2.34-3.67,5.62h20.06Z" fill="#fff"/><path d="M139.49,11.01l18.35,27.12,18.35-27.12h5.91v31.26h-3.98V14.68l-18.71,27.59h-3.12l-18.71-27.59v27.59h-3.98V11.01h5.91Z" fill="#f2b31c"/><path d="M212.8,28.92l-.05-1.82c-.16-2.32-1.5-3.63-4.03-3.93-1.79-.21-3.85-.31-6.19-.31-2.13.02-3.98.04-5.54.08-.61.02-1.16.08-1.67.18-1.53.31-2.35,1.22-2.47,2.73l-.08,1.12h-3.49v-.7c-.02-2.83,1.01-4.67,3.07-5.52,1.02-.43,2.16-.69,3.41-.78,1.73-.1,3.76-.17,6.09-.18,5.47.04,8.95.39,10.46,1.07,1.77.8,2.92,2.06,3.46,3.77.35,1.11.52,2.85.52,5.23v12.41h-3.2v-2.37l-1.04,1.07c-.92.85-2.18,1.33-3.77,1.46-1.72.16-3.89.23-6.51.21l-5-.05c-2.76-.07-4.8-.54-6.12-1.41-1.67-1.13-2.48-2.98-2.45-5.57,0-2.74.7-4.59,2.11-5.54,1.27-.87,3.25-1.32,5.96-1.35l5.7-.08c2.65,0,4.45.03,5.39.08.82.03,1.62.17,2.41.4.79.23,1.47.58,2.04,1.05.22.19.55.5.99.94v-2.19ZM191.7,35.55c-.02,1.65.55,2.75,1.72,3.31.81.38,2.12.58,3.9.6l4.89.1c1.94.02,3.73-.06,5.36-.23,2.12-.19,3.6-.79,4.45-1.8.47-.57.71-1.28.73-2.13,0-.64-.16-1.21-.49-1.72-.69-1.02-2.16-1.61-4.4-1.77-1.75-.14-3.73-.21-5.93-.21l-4.61.03c-1.82,0-3.11.19-3.88.57-1.14.56-1.73,1.64-1.74,3.25Z" fill="#f2b31c"/><path d="M225.48,20.14v2.86c.95-1.11,1.79-1.84,2.5-2.19.85-.43,1.96-.72,3.32-.85s2.76-.2,4.2-.2c3.96,0,6.61.73,7.96,2.19,1.21,1.28,1.84,3.97,1.87,8.07h-3.49c-.02-3.05-.41-4.97-1.17-5.75-.92-.95-2.82-1.43-5.7-1.43-2.69,0-4.68.19-5.99.57-.9.24-1.6.76-2.08,1.56-.94,1.42-1.41,4.03-1.43,7.83v9.45h-3.49v-22.12h3.49Z" fill="#f2b31c"/><path d="M253.22,10.88v18.01h2.19l13.25-8.74h5.8l-15.72,10.25,17.57,11.87h-5.96l-14.94-10.31h-2.19v10.31h-3.49V10.88h3.49Z" fill="#f2b31c"/><path d="M282.55,35.29c.36,2.12,1.76,3.37,4.19,3.75,2.06.37,4.31.54,6.74.52,2.33.02,4.28-.11,5.86-.39,1.72-.28,2.74-1.47,3.07-3.59h3.49c-.12,3.97-2.19,6.19-6.19,6.66-2.05.26-4.17.39-6.38.39-3.68.02-6.41-.17-8.2-.57-3.12-.71-5-2.49-5.62-5.33-.43-1.79-.65-3.71-.65-5.78,0-2.33.21-4.21.62-5.65.57-1.98,1.74-3.39,3.51-4.24.95-.47,1.89-.76,2.81-.88,1.87-.26,3.91-.39,6.12-.39,4.95.04,8.15.4,9.6,1.09,2.81,1.35,4.27,4.06,4.37,8.12v3.12h-23.55c-.02,1.34.05,2.39.21,3.17ZM302.41,29.04c-.12-1.73-.36-2.92-.73-3.57-.57-1.06-1.52-1.75-2.85-2.08-1.33-.33-3.78-.51-7.35-.55-2,.02-3.82.21-5.46.57-2.27.47-3.5,2.34-3.67,5.62h20.07Z" fill="#f2b31c"/><path d="M313.99,20.14v-5.05h3.49v5.05h15.12v3.07h-15.12v12.1c.09,1.93.76,3.16,2.03,3.7.87.36,2.34.55,4.42.55,2.05.04,3.44-.14,4.19-.52.99-.5,1.51-1.75,1.56-3.75l.05-2.79h3.49c-.02,2.57-.11,4.31-.29,5.23-.38,1.94-1.39,3.27-3.02,3.98-.82.4-1.64.63-2.47.7-1.18.16-2.39.23-3.64.21-2.98,0-5.16-.36-6.53-1.07-2-1.04-3.06-2.86-3.2-5.46-.05-.85-.08-2.06-.08-3.62v-9.26h-4.92v-3.07h4.92Z" fill="#f2b31c"/></g></svg>